# xmcd CD database generated by RipIT
#
# Track frame offsets:
# 150
# 12072
# 24746
# 40849
# 58556
# 69729
# 94709
# 104518
# 114606
# 123640
# 141468
# 152386
#
# Disc length: 2318 seconds
#
# Revision: 0
# Processed by: cddbd v1.5.2PL0 Copyright (c) Steve Scherf et al.
# Submitted via: RipIT 3.9.0 www.suwald.com/ripit/ripit.html on 2010-11-21 at 23:45
#
DISCID=a2090c0c
DTITLE=Kirsty McGee - The Kansas Sessions
DYEAR=2008
DGENRE=
TTITLE0=Bonecrusher
TTITLE1=Gunsore
TTITLE2=Sandman
TTITLE3=Sparks
TTITLE4=Alibi Blues
TTITLE5=No Way to Treat a Friend
TTITLE6=Lamb
TTITLE7=Killer Wasps
TTITLE8=Shame
TTITLE9=Dust Devils
TTITLE10=The Profit Song
TTITLE11=Faith
EXTD=
EXTT0=
EXTT1=
EXTT2=
EXTT3=
EXTT4=
EXTT5=
EXTT6=
EXTT7=
EXTT8=
EXTT9=
EXTT10=
EXTT11=
PLAYORDER=
